<svg xmlns="http://www.w3.org/2000/svg" viewBox="0 0 176 68" fill="none">
  <defs>
    <linearGradient id="veciBg" x1="0" y1="0" x2="0" y2="1">
      <stop offset="0" stop-color="#3B82F6"/>
      <stop offset="1" stop-color="#1E40AF"/>
    </linearGradient>
  </defs>
  <g transform="translate(2 2)">
    <rect x="0" y="0" width="60" height="60" rx="16" fill="url(#veciBg)"/>
    <path d="M32 18 L13 35 L21 35 L21 49 L43 49 L43 35 L51 35 Z" fill="#FFFFFF"/>
    <path transform="translate(25.28 36.12) scale(0.42)" d="M23.6,0c-3.4,0-6.3,2.7-7.6,5.6C14.7,2.7,11.8,0,8.4,0C3.8,0,0,3.8,0,8.4c0,9.4,9.5,11.9,16,21.2c6.1-9.3,16-12.1,16-21.2C32,3.8,28.2,0,23.6,0z" fill="#FBBF24"/>
  </g>
  <text x="78" y="41" font-family="'Inter', 'Segoe UI', system-ui, sans-serif" font-size="34" font-weight="800" letter-spacing="-1" fill="#111827">vec<tspan fill="#F59E0B">i</tspan></text>
</svg>